<?xml version="1.0" standalone="no"?>
<!DOCTYPE svg PUBLIC "-//W3C//DTD SVG 20010904//EN"
 "http://www.w3.org/TR/2001/REC-SVG-20010904/DTD/svg10.dtd">
<svg version="1.0" xmlns="http://www.w3.org/2000/svg"
 width="300.000000pt" height="149.000000pt" viewBox="0 0 300.000000 149.000000"
 preserveAspectRatio="xMidYMid meet">
<metadata>
Created by potrace 1.10, written by Peter Selinger 2001-2011
</metadata>
<g transform="translate(0.000000,149.000000) scale(0.100000,-0.100000)"
fill="#000000" stroke="none">
<path d="M580 1201 c-22 -6 -23 -8 -7 -14 10 -4 40 -7 66 -7 l47 0 38 -157
c21 -87 40 -167 43 -178 4 -13 14 16 28 75 12 52 30 132 40 177 l19 81 58 4
c32 2 58 -1 58 -5 0 -4 -31 -133 -70 -286 -69 -274 -70 -280 -70 -410 l0 -131
-57 0 -58 0 3 111 c4 110 3 116 -68 403 -40 160 -79 298 -86 306 -12 12 -14
11 -14 -8 0 -12 4 -30 9 -40 5 -9 19 -62 31 -117 12 -55 31 -134 42 -175 52
-190 58 -225 58 -341 0 -144 10 -163 85 -161 70 1 75 12 75 154 0 113 16 201
74 403 2 6 7 29 11 53 4 23 12 42 17 42 5 0 8 6 7 13 -4 20 12 67 22 67 9 0 2
-116 -9 -134 -2 -4 -6 -27 -8 -50 -1 -22 -7 -75 -13 -116 -15 -114 -31 -257
-38 -332 -7 -86 2 -98 73 -98 49 0 55 2 69 30 8 16 15 38 15 49 0 39 75 57 96
23 6 -10 15 -32 18 -49 4 -17 14 -37 22 -44 18 -15 102 -13 120 2 9 7 27 6 56
-2 24 -6 89 -11 145 -11 80 1 110 5 140 20 38 20 39 20 62 1 27 -22 89 -25
115 -6 16 12 18 27 17 118 -3 190 13 240 66 211 15 -9 17 -29 18 -162 0 -185
-5 -178 134 -179 53 -1 105 -1 115 -2 38 0 62 45 91 176 8 34 96 349 102 365
3 8 7 20 8 25 6 24 37 143 47 178 6 20 12 56 12 80 1 42 1 42 -39 47 -75 9
-93 2 -109 -44 -23 -63 -74 -235 -87 -291 -6 -27 -15 -59 -20 -70 -4 -11 -10
-31 -12 -45 -18 -94 -74 -258 -77 -225 -1 6 -3 154 -6 330 -3 204 -9 324 -16
332 -14 17 -127 18 -133 1 -2 -7 -6 -80 -8 -162 -4 -111 -8 -150 -18 -157 -21
-13 -36 -11 -53 7 -13 13 -16 42 -16 165 0 133 -2 150 -17 157 -29 11 -110 7
-136 -7 -19 -10 -29 -10 -46 -1 -13 6 -72 11 -147 11 -143 1 -167 -8 -183 -68
-14 -50 -14 -214 0 -250 6 -15 10 -29 9 -31 -1 -2 7 -11 17 -20 10 -9 34 -37
53 -62 19 -25 50 -60 68 -79 17 -20 32 -38 32 -42 0 -3 10 -18 23 -33 27 -31
36 -96 13 -96 -8 0 -16 -5 -18 -11 -8 -25 -46 14 -51 53 -3 21 -11 45 -17 53
-14 17 -85 20 -122 6 l-24 -9 -17 151 c-9 84 -19 163 -22 177 -12 62 -15 79
-21 145 -9 99 -21 115 -92 116 -92 3 -146 -2 -160 -14 -10 -8 -16 -7 -22 3 -9
14 -107 19 -128 6 -6 -3 -16 -23 -22 -44 -6 -20 -14 -44 -17 -52 -8 -20 -8
-21 -18 -55 -18 -69 -26 -72 -45 -14 -9 30 -23 75 -30 101 -7 26 -18 52 -24
57 -17 14 -86 21 -116 12z m640 -26 c0 -3 16 -129 35 -282 39 -318 65 -529 65
-537 0 -3 -24 -6 -54 -6 -52 0 -54 1 -60 31 -3 17 -6 47 -6 65 l0 34 -92 0
c-81 -1 -91 -2 -75 -14 15 -12 17 -22 11 -65 l-7 -51 -53 0 c-49 0 -54 2 -54
23 1 12 22 193 49 402 26 209 44 384 39 390 -16 18 -7 20 97 17 58 -2 105 -5
105 -7z m620 -167 l0 -178 65 0 65 0 0 178 0 177 55 0 55 0 0 -415 0 -416 -55
-1 -55 -1 0 179 0 179 -82 0 c-71 -1 -81 -3 -65 -14 15 -12 17 -33 17 -178 l0
-165 -55 0 -55 0 0 403 c0 258 -4 405 -10 409 -23 14 -6 21 55 20 l65 0 0
-177z m606 167 c-3 -8 -21 -73 -40 -143 -19 -70 -69 -250 -110 -399 -42 -150
-76 -275 -76 -278 0 -3 -27 -5 -61 -5 -53 0 -60 2 -55 17 4 9 54 188 112 397
58 210 107 389 110 398 4 12 19 18 57 21 29 2 56 4 61 5 4 1 6 -5 2 -13z
m-777 -21 c18 -23 21 -41 21 -125 l0 -99 -55 0 -55 0 0 63 0 63 -82 1 c-75 2
-81 0 -64 -13 15 -11 19 -25 18 -62 -2 -46 0 -49 118 -192 l120 -145 0 -121
c0 -169 1 -168 -163 -172 -119 -3 -125 -3 -152 20 -26 23 -28 29 -32 131 l-5
107 61 0 60 0 -6 -65 -6 -65 67 0 66 0 0 61 0 62 -120 148 -120 148 0 106 c0
167 8 174 182 175 125 0 127 0 147 -26z m-123 -138 c8 -8 14 -28 14 -43 0 -51
19 -65 88 -64 l62 0 0 -105 c0 -84 -3 -104 -15 -104 -8 0 -19 6 -25 13 -6 6
-20 24 -33 38 -12 14 -33 40 -47 59 -14 18 -35 44 -47 56 -13 13 -23 26 -23
29 0 3 -9 15 -20 27 -47 50 -2 141 46 94z"/>
<path d="M1117 1000 c-16 -127 -47 -390 -47 -395 0 -3 25 -5 55 -5 30 0 55 3
54 8 0 4 -13 106 -28 227 -25 196 -28 214 -34 165z m17 -360 c-10 -10 -14 -11
-14 -2 0 7 -4 10 -10 7 -5 -3 -10 3 -10 14 0 12 6 21 13 22 10 0 10 2 0 6 -7
2 -13 9 -13 14 0 6 5 7 11 3 8 -5 10 1 7 19 -3 15 -1 24 3 21 5 -3 10 3 10 13
1 10 5 -9 9 -42 7 -46 5 -63 -6 -75z"/>
<path d="M455 920 c-16 -4 -84 -22 -150 -40 -66 -18 -126 -32 -134 -33 -26 -1
-54 -39 -58 -82 -7 -59 16 -101 59 -108 30 -5 133 -31 168 -43 8 -3 15 -5 15
-5 0 0 29 -8 65 -19 114 -35 140 -24 140 57 0 48 -11 65 -49 78 -41 13 -41 26
-1 47 42 22 50 34 50 81 0 73 -24 88 -105 67z m85 -58 l0 -58 -100 -24 c-55
-14 -100 -27 -100 -30 0 -3 45 -16 100 -29 l100 -25 0 -59 c0 -43 -3 -57 -12
-54 -7 3 -97 29 -200 58 l-188 52 0 59 c0 55 1 58 28 64 15 4 101 28 192 54
91 26 168 48 173 49 4 0 7 -25 7 -57z"/>
<path d="M2445 920 c-11 -18 -7 -110 5 -125 6 -7 24 -17 40 -20 45 -10 44 -31
-1 -49 -45 -18 -56 -39 -51 -96 6 -59 22 -49 22 14 l0 55 100 23 c55 13 100
25 100 28 0 3 -45 16 -99 29 l-99 23 -4 59 c-2 37 1 58 7 55 6 -2 97 -27 203
-56 l192 -53 0 -57 0 -56 -192 -53 c-106 -29 -200 -57 -208 -62 -25 -14 44
-11 92 5 24 7 81 24 128 36 196 52 200 55 200 130 0 78 -5 81 -282 154 -105
28 -143 32 -153 16z"/>
<path d="M138 269 c-21 -12 -24 -52 -4 -68 10 -8 365 -11 1359 -11 740 0 1352
3 1361 6 23 9 21 61 -3 74 -27 14 -2689 13 -2713 -1z m2722 -36 l0 -23 -1365
0 -1365 0 4 23 c3 12 5 22 5 22 1 0 613 0 1361 0 l1360 0 0 -22z"/>
</g>
</svg>
